<svg id="Layer_1" enable-background="new 0 0 512 512" height="512" viewBox="0 0 512 512" width="512"
  xmlns="http://www.w3.org/2000/svg">
  <g>
    <path
      d="m416.667 321.333h-321.334c-8.284 0-15 6.716-15 15v160.667c0 8.284 6.716 15 15 15h321.333c8.284 0 15-6.716 15-15v-160.667c.001-8.284-6.715-15-14.999-15z"
      fill="#ffe660" />
    <path
      d="m431.667 497v-160.667c0-8.284-6.716-15-15-15h-160.667v190.667h160.667c8.284 0 15-6.716 15-15z"
      fill="#ffc54d" />
    <path
      d="m256 254.933c-8.282 0-14.996-6.711-15-14.992 0-.427-.178-43.162-11.655-84.916-14.012-50.977-37.477-76.825-69.745-76.825-28.832 0-41.738 17.162-41.738 34.171 0 23.26 23.117 48.295 73.871 48.295 8.284 0 15 6.716 15 15s-6.716 15-15 15c-65.411 0-103.871-36.376-103.871-78.295 0-31.889 24.641-64.171 71.738-64.171 32.712 0 76.411 17.249 98.821 99.42 12.436 45.597 12.579 90.427 12.579 92.313 0 8.284-6.716 15-15 15z"
      fill="#f3f9ff" />
    <path
      d="m304.2 190.667c-8.284 0-15-6.716-15-15s6.716-15 15-15c71.744 0 97.844-36.906 97.844-64.096 0-27.51-23.849-50.504-65.71-50.504-8.284 0-15-6.716-15-15s6.716-15 15-15c68.281 0 95.71 45.391 95.71 80.504 0 50.16-46.85 94.096-127.844 94.096z"
      fill="#e1eeff" />
    <path
      d="m272.067 46.067c-3.978 0-7.793-1.58-10.606-4.394l-16.067-16.067c-5.858-5.858-5.858-15.355 0-21.213 5.857-5.858 15.355-5.858 21.213 0l5.46 5.46 5.459-5.46c5.858-5.858 15.355-5.858 21.213 0s5.858 15.355 0 21.213l-16.066 16.067c-2.812 2.814-6.628 4.394-10.606 4.394z"
      fill="#142d3f" />
    <path
      d="m510.858 250.26c-2.322-5.605-7.791-9.26-13.858-9.26h-160.667c-3.978 0-7.793 1.581-10.606 4.394l-69.727 69.727-69.727-69.727c-2.813-2.813-6.628-4.394-10.606-4.394h-160.666c-6.067 0-11.537 3.655-13.858 9.26s-1.038 12.057 3.252 16.347l75.939 75.939h351.333l75.939-75.939c4.29-4.29 5.574-10.742 3.252-16.347z"
      fill="#ffc54d" />
    <path
      d="m507.606 266.606c4.29-4.29 5.574-10.742 3.252-16.347s-7.791-9.26-13.858-9.26h-160.667c-3.978 0-7.793 1.581-10.606 4.394l-69.727 69.728v27.425h175.667z"
      fill="#f98e00" />
  </g>
</svg>